<mxfile host="app.diagrams.net" modified="2024-03-13T17:27:32.760Z" agent="Mozilla/5.0 (Windows NT 10.0; Win64; x64) AppleWebKit/537.36 (KHTML, like Gecko) Chrome/122.0.0.0 Safari/537.36" etag="EbYA_-T3WrzmwZLPFOzP" version="24.0.5" type="device">
  <diagram name="Page-1" id="mlLU840tIplUjnAgXcjg">
    <mxGraphModel dx="1674" dy="772" grid="1" gridSize="10" guides="1" tooltips="1" connect="1" arrows="1" fold="1" page="1" pageScale="1" pageWidth="850" pageHeight="1100" math="0" shadow="0">
      <root>
        <mxCell id="0" />
        <mxCell id="1" parent="0" />
        <mxCell id="PrdPoLja4cXky3ZY5RbN-2" style="edgeStyle=orthogonalEdgeStyle;rounded=0;orthogonalLoop=1;jettySize=auto;html=1;" edge="1" parent="1" source="PrdPoLja4cXky3ZY5RbN-1">
          <mxGeometry relative="1" as="geometry">
            <mxPoint x="200" y="220" as="targetPoint" />
          </mxGeometry>
        </mxCell>
        <mxCell id="PrdPoLja4cXky3ZY5RbN-1" value="Start" style="ellipse;whiteSpace=wrap;html=1;" vertex="1" parent="1">
          <mxGeometry x="140" y="90" width="120" height="80" as="geometry" />
        </mxCell>
        <mxCell id="PrdPoLja4cXky3ZY5RbN-5" style="edgeStyle=orthogonalEdgeStyle;rounded=0;orthogonalLoop=1;jettySize=auto;html=1;exitX=1;exitY=0.5;exitDx=0;exitDy=0;" edge="1" parent="1" source="PrdPoLja4cXky3ZY5RbN-39">
          <mxGeometry relative="1" as="geometry">
            <mxPoint x="200" y="190" as="targetPoint" />
            <mxPoint x="260" y="240" as="sourcePoint" />
            <Array as="points">
              <mxPoint x="351" y="255" />
              <mxPoint x="351" y="190" />
            </Array>
          </mxGeometry>
        </mxCell>
        <mxCell id="PrdPoLja4cXky3ZY5RbN-31" value="No" style="edgeLabel;html=1;align=center;verticalAlign=middle;resizable=0;points=[];" vertex="1" connectable="0" parent="PrdPoLja4cXky3ZY5RbN-5">
          <mxGeometry x="-0.7671" relative="1" as="geometry">
            <mxPoint as="offset" />
          </mxGeometry>
        </mxCell>
        <mxCell id="PrdPoLja4cXky3ZY5RbN-9" style="edgeStyle=orthogonalEdgeStyle;rounded=0;orthogonalLoop=1;jettySize=auto;html=1;" edge="1" parent="1">
          <mxGeometry relative="1" as="geometry">
            <mxPoint x="200" y="330" as="targetPoint" />
            <mxPoint x="200" y="280" as="sourcePoint" />
          </mxGeometry>
        </mxCell>
        <mxCell id="PrdPoLja4cXky3ZY5RbN-32" value="Yes" style="edgeLabel;html=1;align=center;verticalAlign=middle;resizable=0;points=[];" vertex="1" connectable="0" parent="PrdPoLja4cXky3ZY5RbN-9">
          <mxGeometry x="-0.5248" y="1" relative="1" as="geometry">
            <mxPoint x="-1" y="8" as="offset" />
          </mxGeometry>
        </mxCell>
        <mxCell id="PrdPoLja4cXky3ZY5RbN-40" style="edgeStyle=orthogonalEdgeStyle;rounded=0;orthogonalLoop=1;jettySize=auto;html=1;" edge="1" parent="1" source="PrdPoLja4cXky3ZY5RbN-10" target="PrdPoLja4cXky3ZY5RbN-12">
          <mxGeometry relative="1" as="geometry" />
        </mxCell>
        <mxCell id="PrdPoLja4cXky3ZY5RbN-10" value="Get Gps Position" style="rounded=1;whiteSpace=wrap;html=1;" vertex="1" parent="1">
          <mxGeometry x="140" y="330" width="120" height="60" as="geometry" />
        </mxCell>
        <mxCell id="PrdPoLja4cXky3ZY5RbN-41" style="edgeStyle=orthogonalEdgeStyle;rounded=0;orthogonalLoop=1;jettySize=auto;html=1;entryX=1;entryY=0.5;entryDx=0;entryDy=0;" edge="1" parent="1" source="PrdPoLja4cXky3ZY5RbN-12" target="PrdPoLja4cXky3ZY5RbN-10">
          <mxGeometry relative="1" as="geometry">
            <mxPoint x="200" y="310" as="targetPoint" />
            <Array as="points">
              <mxPoint x="200" y="580" />
              <mxPoint x="300" y="580" />
              <mxPoint x="300" y="360" />
            </Array>
          </mxGeometry>
        </mxCell>
        <mxCell id="PrdPoLja4cXky3ZY5RbN-12" value="Send data" style="rounded=1;whiteSpace=wrap;html=1;" vertex="1" parent="1">
          <mxGeometry x="140" y="450" width="120" height="60" as="geometry" />
        </mxCell>
        <mxCell id="PrdPoLja4cXky3ZY5RbN-17" style="edgeStyle=orthogonalEdgeStyle;rounded=0;orthogonalLoop=1;jettySize=auto;html=1;" edge="1" parent="1" source="PrdPoLja4cXky3ZY5RbN-18">
          <mxGeometry relative="1" as="geometry">
            <mxPoint x="630" y="210" as="targetPoint" />
          </mxGeometry>
        </mxCell>
        <mxCell id="PrdPoLja4cXky3ZY5RbN-18" value="Start" style="ellipse;whiteSpace=wrap;html=1;" vertex="1" parent="1">
          <mxGeometry x="570" y="80" width="120" height="80" as="geometry" />
        </mxCell>
        <mxCell id="PrdPoLja4cXky3ZY5RbN-19" style="edgeStyle=orthogonalEdgeStyle;rounded=0;orthogonalLoop=1;jettySize=auto;html=1;exitX=1;exitY=0.5;exitDx=0;exitDy=0;" edge="1" parent="1" source="PrdPoLja4cXky3ZY5RbN-45">
          <mxGeometry relative="1" as="geometry">
            <mxPoint x="630" y="180" as="targetPoint" />
            <mxPoint x="730" y="240" as="sourcePoint" />
            <Array as="points">
              <mxPoint x="781" y="245" />
              <mxPoint x="781" y="180" />
            </Array>
          </mxGeometry>
        </mxCell>
        <mxCell id="PrdPoLja4cXky3ZY5RbN-35" value="No" style="edgeLabel;html=1;align=center;verticalAlign=middle;resizable=0;points=[];" vertex="1" connectable="0" parent="PrdPoLja4cXky3ZY5RbN-19">
          <mxGeometry x="-0.6712" y="-3" relative="1" as="geometry">
            <mxPoint as="offset" />
          </mxGeometry>
        </mxCell>
        <mxCell id="PrdPoLja4cXky3ZY5RbN-20" style="edgeStyle=orthogonalEdgeStyle;rounded=0;orthogonalLoop=1;jettySize=auto;html=1;" edge="1" parent="1">
          <mxGeometry relative="1" as="geometry">
            <mxPoint x="630" y="320" as="targetPoint" />
            <mxPoint x="630" y="270" as="sourcePoint" />
          </mxGeometry>
        </mxCell>
        <mxCell id="PrdPoLja4cXky3ZY5RbN-36" value="Yes" style="edgeLabel;html=1;align=center;verticalAlign=middle;resizable=0;points=[];" vertex="1" connectable="0" parent="PrdPoLja4cXky3ZY5RbN-20">
          <mxGeometry x="0.2089" y="-1" relative="1" as="geometry">
            <mxPoint as="offset" />
          </mxGeometry>
        </mxCell>
        <mxCell id="PrdPoLja4cXky3ZY5RbN-22" style="edgeStyle=orthogonalEdgeStyle;rounded=0;orthogonalLoop=1;jettySize=auto;html=1;" edge="1" parent="1" source="PrdPoLja4cXky3ZY5RbN-23">
          <mxGeometry relative="1" as="geometry">
            <mxPoint x="630" y="440" as="targetPoint" />
          </mxGeometry>
        </mxCell>
        <mxCell id="PrdPoLja4cXky3ZY5RbN-23" value="Receive data" style="rounded=1;whiteSpace=wrap;html=1;" vertex="1" parent="1">
          <mxGeometry x="570" y="320" width="120" height="60" as="geometry" />
        </mxCell>
        <mxCell id="PrdPoLja4cXky3ZY5RbN-28" style="edgeStyle=orthogonalEdgeStyle;rounded=0;orthogonalLoop=1;jettySize=auto;html=1;" edge="1" parent="1" source="PrdPoLja4cXky3ZY5RbN-25" target="PrdPoLja4cXky3ZY5RbN-26">
          <mxGeometry relative="1" as="geometry" />
        </mxCell>
        <mxCell id="PrdPoLja4cXky3ZY5RbN-29" style="edgeStyle=orthogonalEdgeStyle;rounded=0;orthogonalLoop=1;jettySize=auto;html=1;entryX=1;entryY=0.5;entryDx=0;entryDy=0;" edge="1" parent="1" source="PrdPoLja4cXky3ZY5RbN-25" target="PrdPoLja4cXky3ZY5RbN-27">
          <mxGeometry relative="1" as="geometry">
            <mxPoint x="740" y="690" as="targetPoint" />
            <Array as="points">
              <mxPoint x="741" y="470" />
              <mxPoint x="741" y="690" />
            </Array>
          </mxGeometry>
        </mxCell>
        <mxCell id="PrdPoLja4cXky3ZY5RbN-30" style="edgeStyle=orthogonalEdgeStyle;rounded=0;orthogonalLoop=1;jettySize=auto;html=1;" edge="1" parent="1" source="PrdPoLja4cXky3ZY5RbN-25">
          <mxGeometry relative="1" as="geometry">
            <mxPoint x="630" y="290" as="targetPoint" />
            <Array as="points">
              <mxPoint x="531" y="470" />
            </Array>
          </mxGeometry>
        </mxCell>
        <mxCell id="PrdPoLja4cXky3ZY5RbN-25" value="Read Gps Positon" style="rounded=1;whiteSpace=wrap;html=1;" vertex="1" parent="1">
          <mxGeometry x="570" y="440" width="120" height="60" as="geometry" />
        </mxCell>
        <mxCell id="PrdPoLja4cXky3ZY5RbN-26" value="Display" style="rounded=1;whiteSpace=wrap;html=1;" vertex="1" parent="1">
          <mxGeometry x="570" y="550" width="120" height="60" as="geometry" />
        </mxCell>
        <mxCell id="PrdPoLja4cXky3ZY5RbN-27" value="Send Database" style="rounded=1;whiteSpace=wrap;html=1;" vertex="1" parent="1">
          <mxGeometry x="570" y="660" width="120" height="60" as="geometry" />
        </mxCell>
        <mxCell id="PrdPoLja4cXky3ZY5RbN-39" value="&lt;br&gt;Lora Connect &amp;amp; Gps module connect" style="rhombus;whiteSpace=wrap;html=1;" vertex="1" parent="1">
          <mxGeometry x="110" y="220" width="180" height="70" as="geometry" />
        </mxCell>
        <mxCell id="PrdPoLja4cXky3ZY5RbN-45" value="Lora Connect &amp;amp; Wifi Connect&amp;nbsp;" style="rhombus;whiteSpace=wrap;html=1;" vertex="1" parent="1">
          <mxGeometry x="535" y="210" width="190" height="70" as="geometry" />
        </mxCell>
      </root>
    </mxGraphModel>
  </diagram>
</mxfile>
